# MagicaVoxel @ Ephtracy

# group
o 

# material
mtllib Book.mtl
usemtl palette

# normals
vn -1 0 0
vn 1 0 0
vn 0 0 1
vn 0 0 -1
vn 0 -1 0
vn 0 1 0

# texcoords
vt 0.529297 0.5
vt 0.548828 0.5
vt 0.560547 0.5
vt 0.580078 0.5
vt 0.583984 0.5
vt 0.587891 0.5
vt 0.591797 0.5
vt 0.599609 0.5
vt 0.603516 0.5
vt 0.615234 0.5
vt 0.623047 0.5
vt 0.626953 0.5
vt 0.630859 0.5
vt 0.634766 0.5
vt 0.642578 0.5
vt 0.646484 0.5

# verts
v -1.1 0.4 1.6
v -1.1 0.4 1.4
v -1.1 0.4 0.3
v -1.1 0.4 0
v -1.1 0.4 -1.1
v -1.1 0.4 -1.3
v -1.1 0.5 1.6
v -1.1 0.5 1.4
v -1.1 0.5 0.3
v -1.1 0.5 0
v -1.1 0.5 -1.1
v -1.1 0.5 -1.3
v -1.1 0.7 1.6
v -1.1 0.7 1.4
v -1.1 0.7 0.3
v -1.1 0.7 0
v -1.1 0.7 -1.1
v -1.1 0.7 -1.3
v -1 0.3 1.7
v -1 0.3 1.6
v -1 0.3 1.4
v -1 0.3 0.3
v -1 0.3 0
v -1 0.3 -1.1
v -1 0.3 -1.3
v -1 0.3 -1.4
v -1 0.4 1.7
v -1 0.4 1.6
v -1 0.4 1.4
v -1 0.4 0.3
v -1 0.4 0
v -1 0.4 -1.1
v -1 0.4 -1.3
v -1 0.5 1.6
v -1 0.5 -1.3
v -1 0.7 1.6
v -1 0.7 1.4
v -1 0.7 0.3
v -1 0.7 0
v -1 0.7 -1.1
v -1 0.7 -1.2
v -1 0.7 -1.3
v -1 0.8 1.7
v -1 0.8 1.6
v -1 0.8 1.4
v -1 0.8 0.3
v -1 0.8 0
v -1 0.8 -1.1
v -1 0.8 -1.2
v -1 0.8 -1.3
v -1 0.8 -1.4
v -0.9 0.4 1.7
v -0.9 0.4 1.6
v -0.9 0.4 -1.3
v -0.9 0.4 -1.4
v -0.9 0.5 1.6
v -0.9 0.5 -1.3
v -0.9 0.6 1.6
v -0.9 0.6 -1.3
v -0.9 0.7 1.7
v -0.9 0.7 1.6
v -0.9 0.7 -1.3
v -0.9 0.7 -1.4
v 0.8 0.4 1.6
v 0.8 0.4 1.4
v 0.8 0.4 0.3
v 0.8 0.4 0
v 0.8 0.4 -1.1
v 0.8 0.4 -1.3
v 0.8 0.5 1.6
v 0.8 0.5 -1.3
v 0.8 0.6 1.6
v 0.8 0.6 -1.2
v 0.8 0.6 -1.3
v 0.8 0.7 1.6
v 0.8 0.7 1.4
v 0.8 0.7 1.3
v 0.8 0.7 1.1
v 0.8 0.7 1
v 0.8 0.7 0.8
v 0.8 0.7 0.7
v 0.8 0.7 0.5
v 0.8 0.7 0.4
v 0.8 0.7 0.3
v 0.8 0.7 0.2
v 0.8 0.7 0
v 0.8 0.7 -0.0999999
v 0.8 0.7 -0.2
v 0.8 0.7 -0.4
v 0.8 0.7 -0.5
v 0.8 0.7 -0.7
v 0.8 0.7 -0.8
v 0.8 0.7 -1
v 0.8 0.7 -1.1
v 0.8 0.7 -1.2
v 0.8 0.7 -1.3
v 0.9 0.3 1.7
v 0.9 0.3 1.6
v 0.9 0.3 1.4
v 0.9 0.3 0.3
v 0.9 0.3 0
v 0.9 0.3 -1.1
v 0.9 0.3 -1.3
v 0.9 0.3 -1.4
v 0.9 0.4 1.7
v 0.9 0.4 1.6
v 0.9 0.4 1.4
v 0.9 0.4 0.3
v 0.9 0.4 0
v 0.9 0.4 -1.1
v 0.9 0.4 -1.3
v 0.9 0.4 -1.4
v 0.9 0.7 1.7
v 0.9 0.7 1.6
v 0.9 0.7 1.4
v 0.9 0.7 1.3
v 0.9 0.7 1.1
v 0.9 0.7 1
v 0.9 0.7 0.8
v 0.9 0.7 0.7
v 0.9 0.7 0.5
v 0.9 0.7 0.4
v 0.9 0.7 0.3
v 0.9 0.7 0.2
v 0.9 0.7 0
v 0.9 0.7 -0.0999999
v 0.9 0.7 -0.2
v 0.9 0.7 -0.4
v 0.9 0.7 -0.5
v 0.9 0.7 -0.7
v 0.9 0.7 -0.8
v 0.9 0.7 -1
v 0.9 0.7 -1.1
v 0.9 0.7 -1.2
v 0.9 0.7 -1.3
v 0.9 0.7 -1.4
v 0.9 0.8 1.7
v 0.9 0.8 1.6
v 0.9 0.8 1.4
v 0.9 0.8 1.3
v 0.9 0.8 1.1
v 0.9 0.8 1
v 0.9 0.8 0.8
v 0.9 0.8 0.7
v 0.9 0.8 0.5
v 0.9 0.8 0.4
v 0.9 0.8 0.3
v 0.9 0.8 0.2
v 0.9 0.8 0
v 0.9 0.8 -0.0999999
v 0.9 0.8 -0.2
v 0.9 0.8 -0.4
v 0.9 0.8 -0.5
v 0.9 0.8 -0.7
v 0.9 0.8 -0.8
v 0.9 0.8 -1
v 0.9 0.8 -1.1
v 0.9 0.8 -1.2
v 0.9 0.8 -1.3
v 0.9 0.8 -1.4
v -1 0.3 1.7
v -1 0.4 1.7
v -1 0.8 1.7
v -0.9 0.4 1.7
v -0.9 0.7 1.7
v 0.9 0.3 1.7
v 0.9 0.4 1.7
v 0.9 0.7 1.7
v 0.9 0.8 1.7
v -1.1 0.4 1.6
v -1.1 0.5 1.6
v -1.1 0.7 1.6
v -1 0.4 1.6
v -1 0.5 1.6
v -1 0.7 1.6
v -0.9 0.4 1.6
v -0.9 0.5 1.6
v -0.9 0.6 1.6
v -0.9 0.7 1.6
v -0.2 0.6 1.6
v -0.2 0.7 1.6
v 0.8 0.4 1.6
v 0.8 0.5 1.6
v 0.8 0.6 1.6
v 0.8 0.7 1.6
v -1.1 0.4 -1.3
v -1.1 0.5 -1.3
v -1.1 0.7 -1.3
v -1 0.4 -1.3
v -1 0.5 -1.3
v -1 0.7 -1.3
v -0.9 0.4 -1.3
v -0.9 0.5 -1.3
v -0.9 0.6 -1.3
v -0.9 0.7 -1.3
v 0.8 0.4 -1.3
v 0.8 0.5 -1.3
v 0.8 0.6 -1.3
v 0.8 0.7 -1.3
v -1 0.3 -1.4
v -1 0.8 -1.4
v -0.9 0.3 -1.4
v -0.9 0.4 -1.4
v -0.9 0.7 -1.4
v 0.9 0.3 -1.4
v 0.9 0.4 -1.4
v 0.9 0.7 -1.4
v 0.9 0.8 -1.4
v -1 0.3 1.7
v 0.9 0.3 1.7
v -1 0.3 1.6
v 0.9 0.3 1.6
v -1 0.3 1.4
v -0.9 0.3 1.4
v 0.9 0.3 1.4
v -1 0.3 0.3
v -0.9 0.3 0.3
v 0.9 0.3 0.3
v -1 0.3 0
v -0.9 0.3 0
v 0.9 0.3 0
v -1 0.3 -1.1
v -0.9 0.3 -1.1
v 0.9 0.3 -1.1
v -1 0.3 -1.3
v -0.9 0.3 -1.3
v 0.9 0.3 -1.3
v -1 0.3 -1.4
v -0.9 0.3 -1.4
v 0.9 0.3 -1.4
v -1.1 0.4 1.6
v -1 0.4 1.6
v -1.1 0.4 1.4
v -1 0.4 1.4
v -1.1 0.4 0.3
v -1 0.4 0.3
v -1.1 0.4 0
v -1 0.4 0
v -1.1 0.4 -1.1
v -1 0.4 -1.1
v -1.1 0.4 -1.3
v -1 0.4 -1.3
v -0.9 0.7 1.7
v 0.9 0.7 1.7
v -0.9 0.7 1.6
v -0.2 0.7 1.6
v 0.8 0.7 1.6
v 0.9 0.7 1.6
v 0.8 0.7 1.4
v 0.9 0.7 1.4
v 0.8 0.7 1.3
v 0.9 0.7 1.3
v 0.8 0.7 1.1
v 0.9 0.7 1.1
v 0.8 0.7 1
v 0.9 0.7 1
v 0.8 0.7 0.8
v 0.9 0.7 0.8
v 0.8 0.7 0.7
v 0.9 0.7 0.7
v 0.8 0.7 0.5
v 0.9 0.7 0.5
v 0.8 0.7 0.4
v 0.9 0.7 0.4
v 0.8 0.7 0.3
v 0.9 0.7 0.3
v 0.8 0.7 0.2
v 0.9 0.7 0.2
v 0.8 0.7 0
v 0.9 0.7 0
v 0.8 0.7 -0.0999999
v 0.9 0.7 -0.0999999
v 0.8 0.7 -0.2
v 0.9 0.7 -0.2
v 0.8 0.7 -0.4
v 0.9 0.7 -0.4
v 0.8 0.7 -0.5
v 0.9 0.7 -0.5
v 0.8 0.7 -0.7
v 0.9 0.7 -0.7
v 0.8 0.7 -0.8
v 0.9 0.7 -0.8
v 0.8 0.7 -1
v 0.9 0.7 -1
v 0.8 0.7 -1.1
v 0.9 0.7 -1.1
v 0.8 0.7 -1.2
v 0.9 0.7 -1.2
v -0.9 0.7 -1.3
v 0.8 0.7 -1.3
v 0.9 0.7 -1.3
v -0.9 0.7 -1.4
v 0.9 0.7 -1.4
v -0.9 0.4 1.7
v 0.9 0.4 1.7
v -0.9 0.4 1.6
v 0.8 0.4 1.6
v 0.9 0.4 1.6
v 0.8 0.4 1.4
v 0.9 0.4 1.4
v 0.8 0.4 0.3
v 0.9 0.4 0.3
v 0.8 0.4 0
v 0.9 0.4 0
v 0.8 0.4 -1.1
v 0.9 0.4 -1.1
v -0.9 0.4 -1.3
v 0.8 0.4 -1.3
v 0.9 0.4 -1.3
v -0.9 0.4 -1.4
v 0.9 0.4 -1.4
v -1.1 0.7 1.6
v -1 0.7 1.6
v -1.1 0.7 1.4
v -1 0.7 1.4
v -1.1 0.7 0.3
v -1 0.7 0.3
v -1.1 0.7 0
v -1 0.7 0
v -1.1 0.7 -1.1
v -1 0.7 -1.1
v -1 0.7 -1.2
v -1.1 0.7 -1.3
v -1 0.7 -1.3
v -1 0.8 1.7
v 0.9 0.8 1.7
v -1 0.8 1.6
v 0.9 0.8 1.6
v -0.2 0.8 1.5
v 0.2 0.8 1.5
v -1 0.8 1.4
v -0.3 0.8 1.4
v -0.2 0.8 1.4
v 0.2 0.8 1.4
v 0.3 0.8 1.4
v 0.9 0.8 1.4
v 0.8 0.8 1.3
v 0.9 0.8 1.3
v 0 0.8 1.2
v 0.1 0.8 1.2
v -0.3 0.8 1.1
v -0.2 0.8 1.1
v 0.1 0.8 1.1
v 0.2 0.8 1.1
v 0.3 0.8 1.1
v 0.8 0.8 1.1
v 0.9 0.8 1.1
v 0 0.8 1
v 0.2 0.8 1
v 0.8 0.8 1
v 0.9 0.8 1
v -0.3 0.8 0.9
v 0.3 0.8 0.9
v -0.2 0.8 0.8
v -0.1 0.8 0.8
v 0.1 0.8 0.8
v 0.3 0.8 0.8
v 0.8 0.8 0.8
v 0.9 0.8 0.8
v 0 0.8 0.7
v 0.1 0.8 0.7
v 0.2 0.8 0.7
v 0.8 0.8 0.7
v 0.9 0.8 0.7
v -0.3 0.8 0.6
v -0.2 0.8 0.6
v -0.1 0.8 0.6
v 0.1 0.8 0.6
v 0.2 0.8 0.6
v 0.3 0.8 0.6
v -0.2 0.8 0.5
v 0 0.8 0.5
v 0.2 0.8 0.5
v 0.3 0.8 0.5
v 0.8 0.8 0.5
v 0.9 0.8 0.5
v -0.2 0.8 0.4
v 0.3 0.8 0.4
v 0.8 0.8 0.4
v 0.9 0.8 0.4
v -1 0.8 0.3
v -0.9 0.8 0.3
v -0.3 0.8 0.3
v -0.2 0.8 0.3
v 0 0.8 0.3
v 0.1 0.8 0.3
v 0.3 0.8 0.3
v 0.8 0.8 0.3
v 0.9 0.8 0.3
v -0.3 0.8 0.2
v -0.2 0.8 0.2
v 0 0.8 0.2
v 0.1 0.8 0.2
v 0.3 0.8 0.2
v 0.8 0.8 0.2
v 0.9 0.8 0.2
v -0.2 0.8 0.1
v 0.3 0.8 0.1
v -1 0.8 0
v -0.9 0.8 0
v -0.3 0.8 0
v 0.3 0.8 0
v 0.8 0.8 0
v 0.9 0.8 0
v -0.2 0.8 -0.0999999
v -0.1 0.8 -0.0999999
v 0 0.8 -0.0999999
v 0.3 0.8 -0.0999999
v 0.8 0.8 -0.0999999
v 0.9 0.8 -0.0999999
v -0.1 0.8 -0.2
v 0 0.8 -0.2
v 0.8 0.8 -0.2
v 0.9 0.8 -0.2
v -0.3 0.8 -0.3
v -0.2 0.8 -0.3
v -0.3 0.8 -0.4
v -0.2 0.8 -0.4
v -0.1 0.8 -0.4
v 0.3 0.8 -0.4
v 0.8 0.8 -0.4
v 0.9 0.8 -0.4
v -0.3 0.8 -0.5
v -0.2 0.8 -0.5
v -0.1 0.8 -0.5
v 0.3 0.8 -0.5
v 0.8 0.8 -0.5
v 0.9 0.8 -0.5
v -0.3 0.8 -0.6
v 0.3 0.8 -0.6
v -0.3 0.8 -0.7
v -0.1 0.8 -0.7
v 0 0.8 -0.7
v 0.3 0.8 -0.7
v 0.8 0.8 -0.7
v 0.9 0.8 -0.7
v -0.3 0.8 -0.8
v -0.1 0.8 -0.8
v 0 0.8 -0.8
v 0.3 0.8 -0.8
v 0.8 0.8 -0.8
v 0.9 0.8 -0.8
v -0.3 0.8 -0.9
v -0.1 0.8 -0.9
v 0 0.8 -0.9
v 0.3 0.8 -0.9
v -0.2 0.8 -1
v 0.3 0.8 -1
v 0.8 0.8 -1
v 0.9 0.8 -1
v -1 0.8 -1.1
v -0.3 0.8 -1.1
v -0.2 0.8 -1.1
v 0 0.8 -1.1
v 0.1 0.8 -1.1
v 0.3 0.8 -1.1
v 0.9 0.8 -1.1
v -1 0.8 -1.2
v -0.3 0.8 -1.2
v -0.2 0.8 -1.2
v 0 0.8 -1.2
v 0.1 0.8 -1.2
v 0.3 0.8 -1.2
v 0.9 0.8 -1.2
v -1 0.8 -1.3
v -0.2 0.8 -1.3
v 0.3 0.8 -1.3
v 0.9 0.8 -1.3
v -1 0.8 -1.4
v 0.9 0.8 -1.4

# faces
f 7/16/1 2/16/1 1/16/1
f 8/8/1 3/8/1 2/8/1
f 8/16/1 2/16/1 7/16/1
f 9/16/1 4/16/1 3/16/1
f 9/8/1 3/8/1 8/8/1
f 10/8/1 5/8/1 4/8/1
f 10/16/1 4/16/1 9/16/1
f 11/16/1 6/16/1 5/16/1
f 11/8/1 5/8/1 10/8/1
f 12/16/1 6/16/1 11/16/1
f 13/15/1 8/15/1 7/15/1
f 14/11/1 9/11/1 8/11/1
f 14/15/1 8/15/1 13/15/1
f 15/16/1 10/16/1 9/16/1
f 15/11/1 9/11/1 14/11/1
f 16/11/1 11/11/1 10/11/1
f 16/16/1 10/16/1 15/16/1
f 17/15/1 12/15/1 11/15/1
f 17/11/1 11/11/1 16/11/1
f 18/15/1 12/15/1 17/15/1
f 27/9/1 20/9/1 19/9/1
f 28/13/1 21/13/1 20/13/1
f 28/9/1 20/9/1 27/9/1
f 29/10/1 22/10/1 21/10/1
f 29/13/1 21/13/1 28/13/1
f 30/13/1 23/13/1 22/13/1
f 30/10/1 22/10/1 29/10/1
f 31/10/1 24/10/1 23/10/1
f 31/13/1 23/13/1 30/13/1
f 32/13/1 25/13/1 24/13/1
f 32/10/1 24/10/1 31/10/1
f 33/10/1 26/10/1 25/10/1
f 33/13/1 25/13/1 32/13/1
f 34/10/1 28/10/1 27/10/1
f 35/10/1 26/10/1 33/10/1
f 36/10/1 34/10/1 27/10/1
f 42/10/1 26/10/1 35/10/1
f 43/10/1 36/10/1 27/10/1
f 44/15/1 37/15/1 36/15/1
f 44/10/1 36/10/1 43/10/1
f 45/11/1 38/11/1 37/11/1
f 45/15/1 37/15/1 44/15/1
f 46/16/1 39/16/1 38/16/1
f 46/11/1 38/11/1 45/11/1
f 47/11/1 40/11/1 39/11/1
f 47/16/1 39/16/1 46/16/1
f 48/15/1 41/15/1 40/15/1
f 48/11/1 40/11/1 47/11/1
f 49/12/1 42/12/1 41/12/1
f 49/15/1 41/15/1 48/15/1
f 50/10/1 26/10/1 42/10/1
f 50/12/1 42/12/1 49/12/1
f 51/10/1 26/10/1 50/10/1
f 52/10/2 53/10/2 56/10/2
f 54/10/2 55/10/2 57/10/2
f 52/10/2 56/10/2 58/10/2
f 57/10/2 55/10/2 59/10/2
f 52/10/2 58/10/2 60/10/2
f 60/10/2 58/10/2 61/10/2
f 59/10/2 55/10/2 62/10/2
f 62/10/2 55/10/2 63/10/2
f 64/5/2 65/5/2 70/5/2
f 68/5/2 69/5/2 70/5/2
f 67/5/2 68/5/2 70/5/2
f 66/5/2 67/5/2 70/5/2
f 65/5/2 66/5/2 70/5/2
f 70/5/2 69/5/2 71/5/2
f 70/1/2 71/1/2 72/1/2
f 72/1/2 71/1/2 73/1/2
f 73/1/2 71/1/2 74/1/2
f 72/7/2 73/7/2 75/7/2
f 75/7/2 73/7/2 76/7/2
f 76/7/2 73/7/2 77/7/2
f 77/7/2 73/7/2 78/7/2
f 78/7/2 73/7/2 79/7/2
f 79/7/2 73/7/2 80/7/2
f 80/7/2 73/7/2 81/7/2
f 81/7/2 73/7/2 82/7/2
f 82/7/2 73/7/2 83/7/2
f 83/7/2 73/7/2 84/7/2
f 84/7/2 73/7/2 85/7/2
f 85/7/2 73/7/2 86/7/2
f 86/7/2 73/7/2 87/7/2
f 87/7/2 73/7/2 88/7/2
f 88/7/2 73/7/2 89/7/2
f 89/7/2 73/7/2 90/7/2
f 90/7/2 73/7/2 91/7/2
f 91/7/2 73/7/2 92/7/2
f 92/7/2 73/7/2 93/7/2
f 93/7/2 73/7/2 94/7/2
f 73/6/2 74/6/2 95/6/2
f 94/7/2 73/7/2 95/7/2
f 95/6/2 74/6/2 96/6/2
f 97/9/2 98/9/2 105/9/2
f 98/13/2 99/13/2 106/13/2
f 105/9/2 98/9/2 106/9/2
f 99/9/2 100/9/2 107/9/2
f 106/13/2 99/13/2 107/13/2
f 100/13/2 101/13/2 108/13/2
f 107/9/2 100/9/2 108/9/2
f 101/9/2 102/9/2 109/9/2
f 108/13/2 101/13/2 109/13/2
f 102/13/2 103/13/2 110/13/2
f 109/9/2 102/9/2 110/9/2
f 103/9/2 104/9/2 111/9/2
f 110/13/2 103/13/2 111/13/2
f 111/9/2 104/9/2 112/9/2
f 113/10/2 114/10/2 137/10/2
f 114/15/2 115/15/2 138/15/2
f 137/10/2 114/10/2 138/10/2
f 115/11/2 116/11/2 139/11/2
f 138/15/2 115/15/2 139/15/2
f 116/9/2 117/9/2 140/9/2
f 139/11/2 116/11/2 140/11/2
f 117/11/2 118/11/2 141/11/2
f 140/9/2 117/9/2 141/9/2
f 118/9/2 119/9/2 142/9/2
f 141/11/2 118/11/2 142/11/2
f 119/11/2 120/11/2 143/11/2
f 142/9/2 119/9/2 143/9/2
f 120/9/2 121/9/2 144/9/2
f 143/11/2 120/11/2 144/11/2
f 121/11/2 122/11/2 145/11/2
f 144/9/2 121/9/2 145/9/2
f 122/9/2 123/9/2 146/9/2
f 145/11/2 122/11/2 146/11/2
f 123/15/2 124/15/2 147/15/2
f 146/9/2 123/9/2 147/9/2
f 124/14/2 125/14/2 148/14/2
f 147/15/2 124/15/2 148/15/2
f 125/9/2 126/9/2 149/9/2
f 148/14/2 125/14/2 149/14/2
f 126/11/2 127/11/2 150/11/2
f 149/9/2 126/9/2 150/9/2
f 127/9/2 128/9/2 151/9/2
f 150/11/2 127/11/2 151/11/2
f 128/11/2 129/11/2 152/11/2
f 151/9/2 128/9/2 152/9/2
f 129/9/2 130/9/2 153/9/2
f 152/11/2 129/11/2 153/11/2
f 130/11/2 131/11/2 154/11/2
f 153/9/2 130/9/2 154/9/2
f 131/9/2 132/9/2 155/9/2
f 154/11/2 131/11/2 155/11/2
f 132/11/2 133/11/2 156/11/2
f 155/9/2 132/9/2 156/9/2
f 133/15/2 134/15/2 157/15/2
f 156/11/2 133/11/2 157/11/2
f 134/12/2 135/12/2 158/12/2
f 157/15/2 134/15/2 158/15/2
f 135/10/2 136/10/2 159/10/2
f 158/12/2 135/12/2 159/12/2
f 159/10/2 136/10/2 160/10/2
f 164/9/3 162/9/3 161/9/3
f 164/10/3 163/10/3 162/10/3
f 165/10/3 163/10/3 164/10/3
f 166/9/3 164/9/3 161/9/3
f 167/9/3 164/9/3 166/9/3
f 168/10/3 163/10/3 165/10/3
f 169/10/3 163/10/3 168/10/3
f 173/16/3 171/16/3 170/16/3
f 174/15/3 172/15/3 171/15/3
f 174/16/3 171/16/3 173/16/3
f 175/15/3 172/15/3 174/15/3
f 180/1/3 178/1/3 177/1/3
f 180/4/3 179/4/3 178/4/3
f 181/4/3 179/4/3 180/4/3
f 182/5/3 177/5/3 176/5/3
f 183/1/3 180/1/3 177/1/3
f 183/5/3 177/5/3 182/5/3
f 184/7/3 181/7/3 180/7/3
f 184/1/3 180/1/3 183/1/3
f 185/7/3 181/7/3 184/7/3
f 186/16/4 187/16/4 189/16/4
f 187/15/4 188/15/4 190/15/4
f 189/16/4 187/16/4 190/16/4
f 190/15/4 188/15/4 191/15/4
f 192/5/4 193/5/4 196/5/4
f 193/1/4 194/1/4 197/1/4
f 196/5/4 193/5/4 197/5/4
f 194/6/4 195/6/4 198/6/4
f 197/1/4 194/1/4 198/1/4
f 198/6/4 195/6/4 199/6/4
f 200/10/4 201/10/4 202/10/4
f 202/10/4 201/10/4 203/10/4
f 203/10/4 201/10/4 204/10/4
f 202/9/4 203/9/4 205/9/4
f 205/9/4 203/9/4 206/9/4
f 204/10/4 201/10/4 207/10/4
f 207/10/4 201/10/4 208/10/4
f 211/9/5 210/9/5 209/9/5
f 212/9/5 210/9/5 211/9/5
f 213/13/5 212/13/5 211/13/5
f 214/13/5 212/13/5 213/13/5
f 215/13/5 212/13/5 214/13/5
f 216/10/5 214/10/5 213/10/5
f 217/9/5 215/9/5 214/9/5
f 217/10/5 214/10/5 216/10/5
f 218/9/5 215/9/5 217/9/5
f 219/13/5 217/13/5 216/13/5
f 219/13/5 218/13/5 217/13/5
f 220/13/5 218/13/5 219/13/5
f 221/13/5 218/13/5 220/13/5
f 222/10/5 220/10/5 219/10/5
f 223/9/5 221/9/5 220/9/5
f 223/10/5 220/10/5 222/10/5
f 224/9/5 221/9/5 223/9/5
f 225/13/5 223/13/5 222/13/5
f 225/13/5 224/13/5 223/13/5
f 226/13/5 224/13/5 225/13/5
f 227/13/5 224/13/5 226/13/5
f 228/10/5 226/10/5 225/10/5
f 229/9/5 227/9/5 226/9/5
f 229/10/5 226/10/5 228/10/5
f 230/9/5 227/9/5 229/9/5
f 233/16/5 232/16/5 231/16/5
f 234/16/5 232/16/5 233/16/5
f 235/8/5 234/8/5 233/8/5
f 236/8/5 234/8/5 235/8/5
f 237/16/5 236/16/5 235/16/5
f 238/16/5 236/16/5 237/16/5
f 239/8/5 238/8/5 237/8/5
f 240/8/5 238/8/5 239/8/5
f 241/16/5 240/16/5 239/16/5
f 242/16/5 240/16/5 241/16/5
f 245/10/5 244/10/5 243/10/5
f 246/10/5 244/10/5 245/10/5
f 247/10/5 244/10/5 246/10/5
f 248/10/5 244/10/5 247/10/5
f 249/15/5 248/15/5 247/15/5
f 250/15/5 248/15/5 249/15/5
f 251/11/5 250/11/5 249/11/5
f 252/11/5 250/11/5 251/11/5
f 253/9/5 252/9/5 251/9/5
f 254/9/5 252/9/5 253/9/5
f 255/11/5 254/11/5 253/11/5
f 256/11/5 254/11/5 255/11/5
f 257/9/5 256/9/5 255/9/5
f 258/9/5 256/9/5 257/9/5
f 259/11/5 258/11/5 257/11/5
f 260/11/5 258/11/5 259/11/5
f 261/9/5 260/9/5 259/9/5
f 262/9/5 260/9/5 261/9/5
f 263/11/5 262/11/5 261/11/5
f 264/11/5 262/11/5 263/11/5
f 265/9/5 264/9/5 263/9/5
f 266/9/5 264/9/5 265/9/5
f 267/15/5 266/15/5 265/15/5
f 268/15/5 266/15/5 267/15/5
f 269/14/5 268/14/5 267/14/5
f 270/14/5 268/14/5 269/14/5
f 271/9/5 270/9/5 269/9/5
f 272/9/5 270/9/5 271/9/5
f 273/11/5 272/11/5 271/11/5
f 274/11/5 272/11/5 273/11/5
f 275/9/5 274/9/5 273/9/5
f 276/9/5 274/9/5 275/9/5
f 277/11/5 276/11/5 275/11/5
f 278/11/5 276/11/5 277/11/5
f 279/9/5 278/9/5 277/9/5
f 280/9/5 278/9/5 279/9/5
f 281/11/5 280/11/5 279/11/5
f 282/11/5 280/11/5 281/11/5
f 283/9/5 282/9/5 281/9/5
f 284/9/5 282/9/5 283/9/5
f 285/11/5 284/11/5 283/11/5
f 286/11/5 284/11/5 285/11/5
f 287/15/5 286/15/5 285/15/5
f 288/15/5 286/15/5 287/15/5
f 290/12/5 288/12/5 287/12/5
f 291/12/5 288/12/5 290/12/5
f 292/10/5 290/10/5 289/10/5
f 292/10/5 291/10/5 290/10/5
f 293/10/5 291/10/5 292/10/5
f 294/9/6 295/9/6 296/9/6
f 296/9/6 295/9/6 297/9/6
f 297/9/6 295/9/6 298/9/6
f 297/13/6 298/13/6 299/13/6
f 299/13/6 298/13/6 300/13/6
f 299/9/6 300/9/6 301/9/6
f 301/9/6 300/9/6 302/9/6
f 301/13/6 302/13/6 303/13/6
f 303/13/6 302/13/6 304/13/6
f 303/9/6 304/9/6 305/9/6
f 305/9/6 304/9/6 306/9/6
f 305/13/6 306/13/6 308/13/6
f 308/13/6 306/13/6 309/13/6
f 307/9/6 308/9/6 310/9/6
f 308/9/6 309/9/6 310/9/6
f 310/9/6 309/9/6 311/9/6
f 312/15/6 313/15/6 314/15/6
f 314/15/6 313/15/6 315/15/6
f 314/11/6 315/11/6 316/11/6
f 316/11/6 315/11/6 317/11/6
f 316/16/6 317/16/6 318/16/6
f 318/16/6 317/16/6 319/16/6
f 318/11/6 319/11/6 320/11/6
f 320/11/6 319/11/6 321/11/6
f 320/15/6 321/15/6 322/15/6
f 320/15/6 322/15/6 323/15/6
f 323/15/6 322/15/6 324/15/6
f 325/10/6 326/10/6 327/10/6
f 327/10/6 326/10/6 328/10/6
f 327/15/6 328/15/6 329/15/6
f 329/15/6 328/15/6 330/15/6
f 327/15/6 329/15/6 331/15/6
f 331/15/6 329/15/6 332/15/6
f 329/3/6 330/3/6 333/3/6
f 332/15/6 329/15/6 333/15/6
f 330/15/6 328/15/6 334/15/6
f 333/3/6 330/3/6 334/3/6
f 334/15/6 328/15/6 335/15/6
f 335/15/6 328/15/6 336/15/6
f 335/11/6 336/11/6 337/11/6
f 337/11/6 336/11/6 338/11/6
f 333/11/6 334/11/6 339/11/6
f 339/11/6 334/11/6 340/11/6
f 332/3/6 333/3/6 341/3/6
f 331/11/6 332/11/6 341/11/6
f 333/11/6 339/11/6 342/11/6
f 341/3/6 333/3/6 342/3/6
f 340/11/6 334/11/6 343/11/6
f 339/3/6 340/3/6 343/3/6
f 334/3/6 335/3/6 344/3/6
f 343/11/6 334/11/6 344/11/6
f 335/11/6 337/11/6 345/11/6
f 344/3/6 335/3/6 345/3/6
f 337/9/6 338/9/6 346/9/6
f 345/11/6 337/11/6 346/11/6
f 346/9/6 338/9/6 347/9/6
f 342/11/6 339/11/6 348/11/6
f 341/11/6 342/11/6 348/11/6
f 339/3/6 343/3/6 348/3/6
f 343/3/6 344/3/6 348/3/6
f 346/11/6 347/11/6 349/11/6
f 348/3/6 344/3/6 349/3/6
f 345/11/6 346/11/6 349/11/6
f 344/11/6 345/11/6 349/11/6
f 349/11/6 347/11/6 350/11/6
f 350/11/6 347/11/6 351/11/6
f 341/11/6 348/11/6 352/11/6
f 331/11/6 341/11/6 352/11/6
f 348/11/6 349/11/6 352/11/6
f 349/11/6 350/11/6 352/11/6
f 352/11/6 350/11/6 353/11/6
f 352/3/6 353/3/6 354/3/6
f 354/3/6 353/3/6 355/3/6
f 355/3/6 353/3/6 356/3/6
f 353/11/6 350/11/6 357/11/6
f 356/3/6 353/3/6 357/3/6
f 350/9/6 351/9/6 358/9/6
f 357/11/6 350/11/6 358/11/6
f 358/9/6 351/9/6 359/9/6
f 355/3/6 356/3/6 360/3/6
f 356/11/6 357/11/6 361/11/6
f 360/3/6 356/3/6 361/3/6
f 357/11/6 358/11/6 361/11/6
f 358/11/6 359/11/6 361/11/6
f 361/11/6 359/11/6 362/11/6
f 362/11/6 359/11/6 363/11/6
f 363/11/6 359/11/6 364/11/6
f 331/11/6 352/11/6 365/11/6
f 352/3/6 354/3/6 365/3/6
f 354/11/6 355/11/6 366/11/6
f 365/3/6 354/3/6 366/3/6
f 355/3/6 360/3/6 367/3/6
f 366/11/6 355/11/6 367/11/6
f 360/11/6 361/11/6 368/11/6
f 361/3/6 362/3/6 368/3/6
f 362/11/6 363/11/6 369/11/6
f 368/3/6 362/3/6 369/3/6
f 369/11/6 363/11/6 370/11/6
f 365/11/6 366/11/6 371/11/6
f 366/3/6 367/3/6 371/3/6
f 367/3/6 360/3/6 372/3/6
f 371/3/6 367/3/6 372/3/6
f 360/11/6 368/11/6 372/11/6
f 368/11/6 369/11/6 372/11/6
f 369/3/6 370/3/6 373/3/6
f 372/11/6 369/11/6 373/11/6
f 370/11/6 363/11/6 374/11/6
f 373/3/6 370/3/6 374/3/6
f 363/9/6 364/9/6 375/9/6
f 374/11/6 363/11/6 375/11/6
f 375/9/6 364/9/6 376/9/6
f 372/11/6 373/11/6 377/11/6
f 373/11/6 374/11/6 377/11/6
f 375/11/6 376/11/6 377/11/6
f 374/11/6 375/11/6 377/11/6
f 371/11/6 372/11/6 377/11/6
f 365/11/6 371/11/6 377/11/6
f 377/11/6 376/11/6 378/11/6
f 378/11/6 376/11/6 379/11/6
f 379/11/6 376/11/6 380/11/6
f 331/11/6 365/11/6 381/11/6
f 365/11/6 377/11/6 381/11/6
f 381/11/6 377/11/6 382/11/6
f 382/11/6 377/11/6 383/11/6
f 377/3/6 378/3/6 384/3/6
f 383/11/6 377/11/6 384/11/6
f 384/3/6 378/3/6 385/3/6
f 385/3/6 378/3/6 386/3/6
f 378/11/6 379/11/6 387/11/6
f 386/3/6 378/3/6 387/3/6
f 379/9/6 380/9/6 388/9/6
f 387/11/6 379/11/6 388/11/6
f 388/9/6 380/9/6 389/9/6
f 382/14/6 383/14/6 390/14/6
f 383/3/6 384/3/6 390/3/6
f 384/14/6 385/14/6 391/14/6
f 390/3/6 384/3/6 391/3/6
f 385/3/6 386/3/6 392/3/6
f 391/14/6 385/14/6 392/14/6
f 386/14/6 387/14/6 393/14/6
f 392/3/6 386/3/6 393/3/6
f 387/14/6 388/14/6 393/14/6
f 393/14/6 388/14/6 394/14/6
f 388/15/6 389/15/6 395/15/6
f 394/14/6 388/14/6 395/14/6
f 395/15/6 389/15/6 396/15/6
f 391/3/6 392/3/6 397/3/6
f 390/14/6 391/14/6 397/14/6
f 393/3/6 394/3/6 397/3/6
f 392/3/6 393/3/6 397/3/6
f 395/14/6 396/14/6 398/14/6
f 397/3/6 394/3/6 398/3/6
f 394/14/6 395/14/6 398/14/6
f 381/16/6 382/16/6 399/16/6
f 390/14/6 397/14/6 400/14/6
f 399/16/6 382/16/6 400/16/6
f 382/14/6 390/14/6 400/14/6
f 397/14/6 398/14/6 400/14/6
f 400/14/6 398/14/6 401/14/6
f 398/14/6 396/14/6 402/14/6
f 401/14/6 398/14/6 402/14/6
f 402/14/6 396/14/6 403/14/6
f 403/14/6 396/14/6 404/14/6
f 401/3/6 402/3/6 405/3/6
f 405/3/6 402/3/6 406/3/6
f 406/3/6 402/3/6 407/3/6
f 402/11/6 403/11/6 408/11/6
f 407/3/6 402/3/6 408/3/6
f 403/9/6 404/9/6 409/9/6
f 408/11/6 403/11/6 409/11/6
f 409/9/6 404/9/6 410/9/6
f 406/3/6 407/3/6 411/3/6
f 405/11/6 406/11/6 411/11/6
f 407/11/6 408/11/6 412/11/6
f 411/3/6 407/3/6 412/3/6
f 409/11/6 410/11/6 412/11/6
f 408/11/6 409/11/6 412/11/6
f 412/11/6 410/11/6 413/11/6
f 413/11/6 410/11/6 414/11/6
f 400/11/6 401/11/6 415/11/6
f 399/11/6 400/11/6 415/11/6
f 401/3/6 405/3/6 415/3/6
f 405/11/6 411/11/6 416/11/6
f 415/3/6 405/3/6 416/3/6
f 412/11/6 413/11/6 416/11/6
f 411/11/6 412/11/6 416/11/6
f 399/11/6 415/11/6 417/11/6
f 415/11/6 416/11/6 417/11/6
f 416/11/6 413/11/6 418/11/6
f 417/11/6 416/11/6 418/11/6
f 418/11/6 413/11/6 419/11/6
f 419/11/6 413/11/6 420/11/6
f 413/9/6 414/9/6 421/9/6
f 420/11/6 413/11/6 421/11/6
f 421/9/6 414/9/6 422/9/6
f 399/11/6 417/11/6 423/11/6
f 417/3/6 418/3/6 423/3/6
f 418/11/6 419/11/6 424/11/6
f 423/3/6 418/3/6 424/3/6
f 419/3/6 420/3/6 425/3/6
f 424/11/6 419/11/6 425/11/6
f 421/11/6 422/11/6 426/11/6
f 425/3/6 420/3/6 426/3/6
f 420/11/6 421/11/6 426/11/6
f 426/11/6 422/11/6 427/11/6
f 427/11/6 422/11/6 428/11/6
f 423/11/6 424/11/6 429/11/6
f 424/11/6 425/11/6 429/11/6
f 399/11/6 423/11/6 429/11/6
f 426/11/6 427/11/6 429/11/6
f 425/11/6 426/11/6 429/11/6
f 429/11/6 427/11/6 430/11/6
f 399/11/6 429/11/6 431/11/6
f 429/3/6 430/3/6 431/3/6
f 431/3/6 430/3/6 432/3/6
f 432/3/6 430/3/6 433/3/6
f 430/11/6 427/11/6 434/11/6
f 433/3/6 430/3/6 434/3/6
f 427/9/6 428/9/6 435/9/6
f 434/11/6 427/11/6 435/11/6
f 435/9/6 428/9/6 436/9/6
f 399/11/6 431/11/6 437/11/6
f 431/11/6 432/11/6 437/11/6
f 432/3/6 433/3/6 438/3/6
f 437/11/6 432/11/6 438/11/6
f 433/11/6 434/11/6 439/11/6
f 438/3/6 433/3/6 439/3/6
f 435/11/6 436/11/6 439/11/6
f 434/11/6 435/11/6 439/11/6
f 439/11/6 436/11/6 440/11/6
f 440/11/6 436/11/6 441/11/6
f 441/11/6 436/11/6 442/11/6
f 437/3/6 438/3/6 443/3/6
f 399/11/6 437/11/6 443/11/6
f 438/11/6 439/11/6 444/11/6
f 443/3/6 438/3/6 444/3/6
f 439/3/6 440/3/6 445/3/6
f 444/11/6 439/11/6 445/11/6
f 440/11/6 441/11/6 446/11/6
f 445/3/6 440/3/6 446/3/6
f 443/11/6 444/11/6 447/11/6
f 444/11/6 445/11/6 447/11/6
f 445/11/6 446/11/6 447/11/6
f 446/11/6 441/11/6 448/11/6
f 447/11/6 446/11/6 448/11/6
f 441/9/6 442/9/6 449/9/6
f 448/11/6 441/11/6 449/11/6
f 449/9/6 442/9/6 450/9/6
f 399/11/6 443/11/6 451/11/6
f 443/11/6 447/11/6 451/11/6
f 451/11/6 447/11/6 452/11/6
f 447/3/6 448/3/6 453/3/6
f 452/11/6 447/11/6 453/11/6
f 453/3/6 448/3/6 454/3/6
f 454/3/6 448/3/6 455/3/6
f 449/11/6 450/11/6 456/11/6
f 455/3/6 448/3/6 456/3/6
f 448/11/6 449/11/6 456/11/6
f 456/11/6 450/11/6 457/11/6
f 451/15/6 452/15/6 458/15/6
f 452/3/6 453/3/6 459/3/6
f 458/15/6 452/15/6 459/15/6
f 453/15/6 454/15/6 460/15/6
f 459/3/6 453/3/6 460/3/6
f 454/2/6 455/2/6 461/2/6
f 460/15/6 454/15/6 461/15/6
f 455/15/6 456/15/6 462/15/6
f 461/2/6 455/2/6 462/2/6
f 456/15/6 457/15/6 462/15/6
f 462/15/6 457/15/6 463/15/6
f 463/15/6 457/15/6 464/15/6
f 459/12/6 460/12/6 465/12/6
f 458/12/6 459/12/6 465/12/6
f 460/2/6 461/2/6 466/2/6
f 465/12/6 460/12/6 466/12/6
f 461/2/6 462/2/6 466/2/6
f 462/2/6 463/2/6 466/2/6
f 463/12/6 464/12/6 467/12/6
f 466/2/6 463/2/6 467/2/6
f 467/12/6 464/12/6 468/12/6
f 465/10/6 466/10/6 469/10/6
f 466/10/6 467/10/6 469/10/6
f 467/10/6 468/10/6 469/10/6
f 469/10/6 468/10/6 470/10/6
